<svg xmlns="http://www.w3.org/2000/svg" width="60" height="60" viewBox="0 0 60 60">
  <path fill="#3F9D75" d="M10.8805566,1 L0.35047895,8.48240973 L4.3654118,20.5819643 L17.3957013,20.6001903 L21.4288862,8.48238373 L10.8805566,1 L10.8805566,1 Z M48.2194412,1 L37.6711116,8.48240973 L41.6860574,20.5819643 L54.716347,20.6001903 L58.7495188,8.48238373 L48.2194412,1 L48.2194412,1 Z M23.0348541,8.57365672 L19.0199213,20.6914633 L29.5682509,28.173808 L40.0983285,20.6732113 L36.0651436,8.57365672 L23.0348541,8.57365672 L23.0348541,8.57365672 Z M4.31066881,22.3886782 L-1,30.2177719 L4.31066881,38.0104266 L11.5375505,38.0104266 L13.1435315,38.0104266 L18.1439553,38.0104266 L29.1850239,30.2177719 L18.1439553,22.3886782 L13.1435315,22.3886782 L11.5375505,22.3886782 L4.31066881,22.3886782 Z M40.9378165,22.3886782 L29.8967479,30.2177719 L40.9378165,38.0104266 L45.9382403,38.0104266 L47.5442082,38.0104266 L54.789342,38.0104266 L60.0999978,30.2177719 L54.789342,22.3886782 L47.5442082,22.3886782 L45.9382403,22.3886782 L40.9378165,22.3886782 L40.9378165,22.3886782 Z M29.5682509,32.2252969 L19.0199213,39.7076156 L23.0348541,51.8254221 L36.0651436,51.8254221 L40.0983285,39.7258936 L29.5682509,32.2252969 L29.5682509,32.2252969 Z M17.3957013,39.7987326 L4.3654118,39.8170106 L0.35047895,51.9165391 L10.8805566,59.3989229 L21.4288862,51.9165391 L17.3957013,39.7987326 L17.3957013,39.7987326 Z M54.716347,39.7987326 L41.6860574,39.8170106 L37.6711116,51.9165391 L48.2194412,59.3989229 L58.7495188,51.9165391 L54.716347,39.7987326 L54.716347,39.7987326 Z"/>
</svg>
