<svg xmlns="http://www.w3.org/2000/svg" width="60" height="60" viewBox="0 0 60 60">
  <path fill="#FBF7FF" d="M6.72359593,8.52651317e-15 L3.47999551,3.24480042 L0.236395095,6.49080084 L2.54639539,8.57880111 L8.8235962,2.3112003 L6.72359593,8.52651317e-15 Z M12.3719967,2.13712096 C11.3039965,2.14920028 10.3559964,2.95080038 9.99599636,3.29160043 L3.52679552,9.76200126 C3.00479545,10.3020013 1.41479525,12.2340016 3.18959548,13.8540018 C4.82519569,15.282002 6.34079588,13.9980018 6.81479594,13.5300017 C6.90719596,13.4460017 6.95399596,13.3740017 6.95399596,13.3740017 C6.95399596,13.3740017 15.9719971,20.9220027 19.4279976,25.6740033 C20.3039977,27.2580035 20.9399978,28.7580037 20.9399978,30.642004 C19.8959976,40.4580052 17.0279973,43.0620056 18.0239974,43.9620057 C26.8679985,52.8180068 37.5359999,54.9420071 37.5359999,54.9420071 L46.3560011,46.122006 L55.2000022,37.2900048 C55.2000022,37.2900048 53.0400019,26.6460034 44.1960008,17.7780023 C43.2840007,16.8060022 40.6800003,19.6740025 30.8759991,20.7060027 C28.9799988,20.7060027 27.4799986,20.0820026 25.9079984,19.1940025 C22.2119979,16.4940021 16.8239972,10.4340013 14.603997,7.90800102 L12.8279967,9.66600125 C14.4119969,11.4540015 18.8519975,16.2660021 23.2319981,20.0580026 C22.343998,19.8300026 21.0839978,20.5860027 21.0839978,20.5860027 C19.4279976,19.2780025 12.9839967,12.9540017 11.3639965,11.0940014 L10.2599964,12.2340016 L9.19199625,11.1660014 L13.6199968,6.71880087 C13.6199968,6.71880087 13.6559968,6.67440086 13.7639968,6.58200085 C14.2199969,6.10680079 15.5039971,4.59120059 14.1119969,2.95560038 C13.5479968,2.3448003 12.9479967,2.13240028 12.3719967,2.13712096 L12.3719967,2.13712096 Z M43.4040007,19.5900025 L43.4160007,19.5900025 C45.924001,22.2780029 48.0240013,25.1700033 49.6800015,28.2180036 C51.1800017,31.026004 52.2960018,33.9780044 52.9920019,36.9780048 L37.2239999,52.7700068 L37.1999999,52.7700068 C34.2239995,52.0620067 31.2719991,50.9580066 28.4519987,49.4220064 C25.3799983,47.7900062 22.499998,45.7020059 19.8119976,43.1940056 L19.8119976,43.1580056 C21.7439979,38.538005 23.4959981,32.3820042 22.631998,28.8900037 L22.607998,28.8420037 L22.643998,28.8540037 C24.2879982,29.4900038 26.9519985,26.8140035 26.9999986,26.7660035 C27.0359986,26.7300035 29.7239989,24.0660031 29.0999988,22.4340029 L29.0759988,22.3860029 L29.1239988,22.3980029 C32.5919993,23.250003 38.7600001,21.5100028 43.4040007,19.5900025 Z M27.1079986,21.7740028 C27.3479986,21.7740028 27.5399986,21.8340028 27.6839986,21.9780028 C28.3439987,22.6380029 27.2879986,24.4020032 25.9559984,25.7340033 C24.6359982,27.0540035 22.883998,28.1100036 22.2239979,27.4500035 C21.5519978,26.8020035 22.595998,25.0140032 23.9399982,23.7060031 C24.9719983,22.6620029 26.2679985,21.7980028 27.1079986,21.7740028 L27.1079986,21.7740028 Z M37.3079999,24.6539505 C36.3599998,24.6539505 35.3639996,24.8100032 34.3199995,25.1940033 C30.431999,26.8860035 33.3239994,31.146004 36.9119998,31.6980041 C40.1880003,32.2260042 45.2760009,30.978004 43.9320007,28.0980036 C43.2720007,26.6820034 40.6800003,24.6420032 37.3079999,24.6539505 L37.3079999,24.6539505 Z M27.8159987,32.2380042 C26.8799985,32.2260042 25.9919984,32.7660042 25.4039983,34.0980044 C23.6759981,38.838005 26.5199985,42.8580055 28.3319987,43.6860056 C31.2119991,45.0420058 32.4599993,39.9540052 31.9319992,36.6780047 C31.5719991,34.3260044 29.6039989,32.2740042 27.8159987,32.2380042 L27.8159987,32.2380042 Z M46.212001,33.0060043 C44.4360008,33.0300043 41.5920004,33.8820044 37.872,37.6140049 C31.2239991,44.2260057 33.6839994,48.1140062 33.6839994,48.1140062 C35.0399996,51.1140066 38.388,51.6780067 40.5360003,46.0620059 C41.1600004,44.4300057 41.3280004,43.5420056 42.5640006,42.3180055 C43.7760007,41.1060053 44.6760008,40.9260053 46.296001,40.3140052 C51.9120018,38.1540049 51.3480017,34.7940045 48.3360013,33.4620043 C48.3360013,33.4620043 47.6040012,32.9820043 46.212001,33.0060043 L46.212001,33.0060043 Z M36.7919998,33.3660043 C36.3359998,33.3660043 35.9519997,33.4980043 35.7359997,33.8700044 C35.1359996,35.1420045 37.3559999,35.2860046 39.3240001,34.9380045 C40.1040002,34.7460045 38.16,33.4020043 36.7919998,33.3660043 L36.7919998,33.3660043 Z M34.5119995,35.4060046 C34.3919995,35.3940046 34.2479995,35.4300046 34.0919995,35.5020046 C32.6039993,36.3420047 34.9079996,40.1220052 35.1719996,39.090005 C35.4599996,37.3740048 35.3879996,35.4540046 34.5119995,35.4060046 Z" transform="matrix(-1 0 0 1 58 2)"/>
</svg>
