<svg xmlns="http://www.w3.org/2000/svg" width="60" height="60" viewBox="0 0 60 60">
  <path fill="#FBF7FF" d="M55,0 L45.2553145,1.73645108 L20.5078786,26.483887 C20.8889283,27.04635 21.1351738,27.736141 21.1351738,28.4617941 C21.1351738,29.146679 20.9354206,29.7876414 20.5928029,30.3303627 C20.0011363,30.1427582 19.3723226,30.0410126 18.7206131,30.0410126 C16.8838182,30.0410126 15.2273852,30.8458661 14.0842362,32.1198477 L13.0198203,31.055315 L15.0333559,29.0417793 C14.5059374,28.3675247 13.992887,27.6814717 13.4925695,26.9858399 L11.2213406,29.2567184 L9.6776338,27.7130117 L12.2274659,25.1632964 C11.7131306,24.3934873 11.2146821,23.6122303 10.7331718,22.8190582 L5.96689683,27.58545 L12.7788315,34.3973846 C12.5904093,34.9902194 12.4879628,35.6204349 12.4879628,36.2737798 C12.4879628,37.1692815 12.6807071,38.0213282 13.0243761,38.7927728 L4.59736084,47.219788 L2.89653825,45.5189654 L0,48.4158541 L1.70058896,50.1166767 L0.695164507,51.122218 L3.87789886,54.3049523 L4.8832065,53.2991774 L6.58402909,55 L9.48080097,52.1029945 L7.78032882,50.4026392 L16.2094467,41.9732877 C16.9787886,42.3146203 17.8282653,42.5061965 18.7207299,42.5061965 C19.3740748,42.5061965 20.0042903,42.40375 20.5971251,42.2153278 L27.4147836,49.0329864 L32.1809418,44.2665946 C31.386952,43.7845002 30.6055782,43.2859349 29.8367036,42.7721836 L27.2866379,45.3222494 L25.7432816,43.778309 L28.0143937,41.5074305 C27.3179442,41.0062953 26.6318913,40.4931281 25.9581039,39.9661768 L23.9444514,41.9798293 L22.8744284,40.9098063 C24.1482931,39.7667741 24.9531467,38.1103411 24.9531467,36.2734293 C24.9531467,35.6489377 24.858994,35.0457064 24.686225,34.4756505 C25.2356047,34.1205337 25.888015,33.9129539 26.5862167,33.9130707 C27.3116362,33.9130707 27.9618271,34.1198328 28.5159962,34.4918877 L53.2636657,9.74433502 L55,0 Z M47.0461905,6.41666667 L48.5833333,7.95383204 L26.2870266,30.25 L24.75,28.7130673 L47.0461905,6.41666667 L47.0461905,6.41666667 Z M18.7917262,32.0833333 C21.0832011,32.0833333 22.9166667,33.9170369 22.9166667,36.2082738 C22.9166667,38.4996298 21.0832011,40.3333333 18.7917262,40.3333333 C16.5003702,40.3333333 14.6666667,38.4996298 14.6666667,36.2083928 C14.6666667,33.9171559 16.5003702,32.0833333 18.7917262,32.0833333 Z" transform="translate(2 2)"/>
</svg>
