<svg xmlns="http://www.w3.org/2000/svg" width="60" height="60" viewBox="0 0 60 60">
  <path fill="#FBF7FF" d="M26.1209751,0.0331557 L31.1256565,9.8575326 L35.773171,4.94968869 L26.1209751,0.0331557 Z M46.6820823,2.75683929 L45.1418285,4.29686439 L50.4932729,9.64842303 L52.0344413,8.10954123 L46.681968,2.75695362 L46.6820823,2.75683929 Z M40.6889037,2.8651098 L10.9619604,34.2596705 L20.2970049,43.595058 L51.8838686,14.0603034 L40.6889037,2.8651098 L40.6889037,2.8651098 Z M40.3348237,8.64700656 C41.8159688,8.64700656 43.2973427,9.20916717 44.4212066,10.3330311 C46.6689344,12.5807589 46.6689344,16.2576117 44.4212066,18.5053395 C42.1734788,20.7532959 38.4963973,20.7532959 36.2486695,18.5053395 C34.0009417,16.2576117 34.0009417,12.5807589 36.2486695,10.3330311 C37.3725334,9.20916717 38.8536785,8.64700656 40.3348237,8.64700656 L40.3348237,8.64700656 Z M17.0771291,10.1719401 L21.8991112,19.6018785 L26.341975,14.909318 L17.0771291,10.1718258 L17.0771291,10.1719401 Z M40.3348237,10.7704577 C39.4048635,10.7704577 38.4751319,11.1283106 37.7595404,11.8440164 C36.3281288,13.2751993 36.3281288,15.5635142 37.7595404,16.9945829 C39.1907234,18.4259945 41.4791527,18.4259945 42.9103356,16.9945829 C44.3417472,15.5635142 44.3417472,13.2751993 42.9103356,11.8440164 C42.1946298,11.1283106 41.2646696,10.7704577 40.3348237,10.7704577 L40.3348237,10.7704577 Z M30.7410504,18.4231362 C32.1729193,18.4265661 33.6057029,18.9734065 34.6934385,20.0611421 C36.8686811,22.236499 36.8805714,25.791819 34.7101307,27.9621454 C32.5398043,30.1324718 28.9844843,30.1206958 26.809013,27.9452246 C24.6336561,25.7698677 24.6218801,22.2145477 26.7923209,20.0441069 C27.8773126,18.9591152 29.3087242,18.4194776 30.7409361,18.4228913 L30.7410504,18.4231362 Z M49.7861418,18.9467676 L44.8207899,23.5894802 L54.7194813,28.6316619 L49.7861418,18.9467676 L49.7861418,18.9467676 Z M8.10908391,20.4513504 L12.6773677,29.3405079 L16.8441246,24.9402892 L8.10908391,20.4512361 L8.10908391,20.4513504 Z M30.7379635,20.5462327 C29.8571652,20.5439577 28.9779675,20.8803166 28.3033061,21.5549779 C26.9537548,22.9044149 26.9569561,25.0713114 28.3199983,26.4343536 C29.6831549,27.7975102 31.8499371,27.8009401 33.1993741,26.4515031 C34.5489254,25.1019518 34.5458385,22.9351697 33.1826819,21.5721274 C32.5012751,20.8904919 31.6186475,20.5488739 30.7380778,20.5465873 L30.7379635,20.5462327 Z M21.1071473,28.2749523 C22.4802506,28.2827267 23.8547258,28.811503 24.8987874,29.8555646 C26.9867962,31.9436877 27.0134351,35.3531226 24.9358303,37.4308417 C22.8581112,39.5084465 19.4486763,39.4819219 17.3605532,37.3936844 C15.2724301,35.3055613 15.2457912,31.8961264 17.3233959,29.8185216 C18.362427,28.7797193 19.734044,28.2670635 21.1071473,28.2750666 L21.1071473,28.2749523 Z M39.7863827,28.2971323 L34.996756,32.7754384 L44.5825262,37.6771085 L39.7863827,28.2971323 Z M21.0996015,30.3980604 C20.2779118,30.3926869 19.4598806,30.7037788 18.8342669,31.3292783 C17.583268,32.5803914 17.5898992,34.6014029 18.8714241,35.8830422 C20.1530634,37.1643385 22.1739605,37.1709696 23.425188,35.9199707 C24.6759582,34.6688576 24.6694414,32.6478461 23.3879165,31.3664355 C22.7472111,30.7256159 21.9216342,30.4037769 21.0998302,30.3980604 L21.0996015,30.3980604 Z M29.7135667,37.7155234 L25.1785529,41.9557944 L34.3020869,46.6444677 L29.7135667,37.7156377 L29.7135667,37.7155234 Z M11.559792,37.878901 L0.1063269,49.3325947 L0.1063269,54.752637 L5.32526274,54.752637 L16.8874556,43.206679 L11.5596776,37.878901 L11.559792,37.878901 Z" transform="translate(3 3)"/>
</svg>
