<svg xmlns="http://www.w3.org/2000/svg" width="60" height="60" viewBox="0 0 60 60">
  <path fill="#FBF7FF" d="M7.80398437,0.011015625 L6.54421875,1.27078125 L6.54773437,1.27429687 L9.77414062,40.3637109 L0.0440625,51.2548828 L3.94054687,55.1513672 L14.5055859,45.7103906 L53.9028516,48.6291797 C53.9098828,48.6364453 53.9173828,48.6437109 53.9246484,48.6509766 L53.9429297,48.6326953 L53.9466797,48.6326953 L53.9466797,48.6291797 L55.1844141,47.3912109 C54.9880078,47.1948047 54.8185547,46.9884375 54.6351562,46.7869922 C52.1353125,43.7928516 51.6567187,39.3760547 50.4785156,33.9989062 C49.5031641,29.5469531 47.9912109,24.5017969 44.2565625,19.3469531 L39.7961719,25.30125 C39.7967578,25.3021875 39.7955859,25.3042969 39.7961719,25.305 C43.1932031,29.5324219 45.1899609,33.2463281 46.7946094,36.5842969 C48.5544141,40.2460547 49.8557812,43.4983594 52.0055859,46.3914844 L16.6774219,43.7695312 L36.8589844,25.7336719 L44.4030469,15.6590625 L39.53625,10.7922656 L29.4690234,18.3288281 L11.6964844,38.2141406 L8.80734375,3.19335937 C11.6995312,5.34140625 14.9508984,6.64171875 18.6107812,8.4009375 C21.9494531,10.0055859 25.6654687,12.0009375 29.8938281,15.3991406 L35.8483594,10.93875 C30.6932812,7.20515625 25.6483594,5.69625 21.1964062,4.72042969 C15.8187891,3.541875 11.4023437,3.06011719 8.40820312,0.56015625 C8.20664062,0.376875 8.00039062,0.207421875 7.80398437,0.011015625 Z M44.9559375,0.047578125 C44.5592578,0.050859375 44.1517969,0.09515625 43.75125,0.16125 C43.2171094,0.249140625 42.6975,0.376523437 42.2497266,0.523710937 C41.8020703,0.670664062 41.4556641,0.793476562 41.1110156,1.06558594 C40.8906188,1.23907626 40.7711005,1.51093647 40.7922656,1.790625 L41.3819531,9.09667969 C41.3967018,9.29678879 41.4824377,9.48505034 41.6237109,9.62753906 L45.5677734,13.5680859 C45.708801,13.7099793 45.8957492,13.797014 46.0951172,13.8135937 L53.4010547,14.4030469 C53.6819444,14.4255139 53.9554483,14.3059604 54.1297266,14.0845312 C54.4033594,13.7395313 54.5242969,13.3937109 54.6717187,12.9457031 C54.819375,12.4975781 54.9462891,11.9783203 55.0344141,11.4440625 C55.1225391,10.9096875 55.1726953,10.3661719 55.1369531,9.84738281 C55.1012109,9.32882813 55.0183594,8.79386719 54.5692969,8.34621094 L46.8492187,0.626132812 C46.4013281,0.178007812 45.8667187,0.0941015625 45.3480469,0.0584765625 C45.2182031,0.0495703125 45.0883594,0.04640625 44.9560547,0.0474609375 L44.9559375,0.047578125 Z M44.9707031,1.73214844 C45.0644531,1.73144531 45.1538672,1.73402344 45.234375,1.73964844 C45.5160937,1.75898437 45.6726562,1.846875 45.6703125,1.83105469 L53.3642578,9.52523438 C53.3480859,9.52253906 53.4364453,9.6796875 53.4556641,9.96117187 C53.4779297,10.2829687 53.4483984,10.7259375 53.3752734,11.1697266 C53.3019141,11.6133984 53.1883594,12.0626953 53.0711719,12.4184766 C53.0228906,12.5649609 53.0097656,12.5675391 52.96125,12.6746484 L46.5417187,12.1619531 L43.0333594,8.65382813 L42.5205469,2.23042969 C42.6275391,2.18238281 42.6307031,2.17242187 42.7768359,2.124375 C43.1327344,2.00742187 43.5821484,1.89351562 44.0258203,1.82039062 C44.3586328,1.76578125 44.6893359,1.73507812 44.9705859,1.7325 L44.9707031,1.73214844 Z M39.3493359,15.8462109 L37.1301562,19.5485156 L13.1653125,43.5096094 L12.1289062,43.4328516 L11.9896875,41.72625 L35.6469141,18.0653906 L39.3493359,15.8462109 L39.3493359,15.8462109 Z" transform="translate(1.227 2.758)"/>
</svg>
